<mxfile host="app.diagrams.net" agent="Mozilla/5.0 (Windows NT 10.0; Win64; x64) AppleWebKit/537.36 (KHTML, like Gecko) Chrome/131.0.0.0 Safari/537.36" version="24.9.0">
  <diagram name="Page-1" id="OtSJ0cjfsR-jjIx_Txlz">
    <mxGraphModel dx="2035" dy="654" grid="1" gridSize="10" guides="1" tooltips="1" connect="1" arrows="1" fold="1" page="1" pageScale="1" pageWidth="850" pageHeight="1100" math="0" shadow="0">
      <root>
        <mxCell id="0" />
        <mxCell id="1" parent="0" />
        <mxCell id="oaFlQshyKjZFu2qwFtEv-1" value="&lt;u&gt;Customer_ID&lt;/u&gt;" style="rounded=0;whiteSpace=wrap;html=1;labelBackgroundColor=none;" vertex="1" parent="1">
          <mxGeometry x="40" y="40" width="80" height="40" as="geometry" />
        </mxCell>
        <mxCell id="oaFlQshyKjZFu2qwFtEv-2" value="F_Name" style="rounded=0;whiteSpace=wrap;html=1;labelBackgroundColor=none;" vertex="1" parent="1">
          <mxGeometry x="120" y="40" width="70" height="40" as="geometry" />
        </mxCell>
        <mxCell id="oaFlQshyKjZFu2qwFtEv-3" value="L_Name" style="rounded=0;whiteSpace=wrap;html=1;labelBackgroundColor=none;" vertex="1" parent="1">
          <mxGeometry x="190" y="40" width="70" height="40" as="geometry" />
        </mxCell>
        <mxCell id="oaFlQshyKjZFu2qwFtEv-4" value="Phone" style="rounded=0;whiteSpace=wrap;html=1;labelBackgroundColor=none;" vertex="1" parent="1">
          <mxGeometry x="320" y="40" width="70" height="40" as="geometry" />
        </mxCell>
        <mxCell id="oaFlQshyKjZFu2qwFtEv-5" value="Email" style="rounded=0;whiteSpace=wrap;html=1;labelBackgroundColor=none;" vertex="1" parent="1">
          <mxGeometry x="390" y="40" width="70" height="40" as="geometry" />
        </mxCell>
        <mxCell id="oaFlQshyKjZFu2qwFtEv-6" value="Address" style="rounded=0;whiteSpace=wrap;html=1;labelBackgroundColor=none;" vertex="1" parent="1">
          <mxGeometry x="460" y="40" width="70" height="40" as="geometry" />
        </mxCell>
        <mxCell id="oaFlQshyKjZFu2qwFtEv-7" value="M_Init" style="rounded=0;whiteSpace=wrap;html=1;labelBackgroundColor=none;" vertex="1" parent="1">
          <mxGeometry x="260" y="40" width="60" height="40" as="geometry" />
        </mxCell>
        <mxCell id="oaFlQshyKjZFu2qwFtEv-8" value="&lt;b&gt;Customer&lt;/b&gt;" style="text;html=1;align=center;verticalAlign=middle;whiteSpace=wrap;rounded=0;" vertex="1" parent="1">
          <mxGeometry x="40" y="10" width="60" height="30" as="geometry" />
        </mxCell>
        <mxCell id="oaFlQshyKjZFu2qwFtEv-9" value="&lt;u&gt;Appointment_ID&lt;/u&gt;" style="rounded=0;whiteSpace=wrap;html=1;labelBackgroundColor=none;" vertex="1" parent="1">
          <mxGeometry x="40" y="120" width="100" height="40" as="geometry" />
        </mxCell>
        <mxCell id="oaFlQshyKjZFu2qwFtEv-10" value="&lt;b&gt;Appointment&lt;/b&gt;" style="text;html=1;align=center;verticalAlign=middle;whiteSpace=wrap;rounded=0;" vertex="1" parent="1">
          <mxGeometry x="40" y="90" width="80" height="30" as="geometry" />
        </mxCell>
        <mxCell id="oaFlQshyKjZFu2qwFtEv-11" value="Drop_Off" style="rounded=0;whiteSpace=wrap;html=1;labelBackgroundColor=none;" vertex="1" parent="1">
          <mxGeometry x="140" y="120" width="70" height="40" as="geometry" />
        </mxCell>
        <mxCell id="oaFlQshyKjZFu2qwFtEv-12" value="Pick_Up" style="rounded=0;whiteSpace=wrap;html=1;labelBackgroundColor=none;" vertex="1" parent="1">
          <mxGeometry x="210" y="120" width="60" height="40" as="geometry" />
        </mxCell>
        <mxCell id="oaFlQshyKjZFu2qwFtEv-13" value="Appointment_Made_Date" style="rounded=0;whiteSpace=wrap;html=1;labelBackgroundColor=none;" vertex="1" parent="1">
          <mxGeometry x="270" y="120" width="150" height="40" as="geometry" />
        </mxCell>
        <mxCell id="oaFlQshyKjZFu2qwFtEv-14" value="&lt;b&gt;Package&lt;/b&gt;" style="text;html=1;align=center;verticalAlign=middle;whiteSpace=wrap;rounded=0;" vertex="1" parent="1">
          <mxGeometry x="40" y="170" width="60" height="30" as="geometry" />
        </mxCell>
        <mxCell id="oaFlQshyKjZFu2qwFtEv-15" value="&lt;u&gt;Package_ID&lt;/u&gt;" style="rounded=0;whiteSpace=wrap;html=1;labelBackgroundColor=none;" vertex="1" parent="1">
          <mxGeometry x="40" y="200" width="90" height="40" as="geometry" />
        </mxCell>
        <mxCell id="oaFlQshyKjZFu2qwFtEv-16" value="Name" style="rounded=0;whiteSpace=wrap;html=1;labelBackgroundColor=none;" vertex="1" parent="1">
          <mxGeometry x="130" y="200" width="60" height="40" as="geometry" />
        </mxCell>
        <mxCell id="oaFlQshyKjZFu2qwFtEv-17" value="Time_Since_Purchase" style="rounded=0;whiteSpace=wrap;html=1;labelBackgroundColor=none;" vertex="1" parent="1">
          <mxGeometry x="190" y="200" width="130" height="40" as="geometry" />
        </mxCell>
        <mxCell id="oaFlQshyKjZFu2qwFtEv-78" style="edgeStyle=orthogonalEdgeStyle;rounded=0;orthogonalLoop=1;jettySize=auto;html=1;entryX=0;entryY=0.5;entryDx=0;entryDy=0;" edge="1" parent="1" source="oaFlQshyKjZFu2qwFtEv-18" target="oaFlQshyKjZFu2qwFtEv-49">
          <mxGeometry relative="1" as="geometry">
            <Array as="points">
              <mxPoint y="265" />
              <mxPoint y="825" />
            </Array>
          </mxGeometry>
        </mxCell>
        <mxCell id="oaFlQshyKjZFu2qwFtEv-79" style="edgeStyle=orthogonalEdgeStyle;rounded=0;orthogonalLoop=1;jettySize=auto;html=1;entryX=0;entryY=0.5;entryDx=0;entryDy=0;" edge="1" parent="1" source="oaFlQshyKjZFu2qwFtEv-18" target="oaFlQshyKjZFu2qwFtEv-50">
          <mxGeometry relative="1" as="geometry">
            <Array as="points">
              <mxPoint x="-10" y="265" />
              <mxPoint x="-10" y="905" />
            </Array>
          </mxGeometry>
        </mxCell>
        <mxCell id="oaFlQshyKjZFu2qwFtEv-18" value="&lt;b&gt;Task&lt;/b&gt;" style="text;html=1;align=center;verticalAlign=middle;whiteSpace=wrap;rounded=0;" vertex="1" parent="1">
          <mxGeometry x="40" y="250" width="60" height="30" as="geometry" />
        </mxCell>
        <mxCell id="oaFlQshyKjZFu2qwFtEv-19" value="Task_ID" style="rounded=0;whiteSpace=wrap;html=1;labelBackgroundColor=none;fontStyle=4" vertex="1" parent="1">
          <mxGeometry x="40" y="280" width="60" height="40" as="geometry" />
        </mxCell>
        <mxCell id="oaFlQshyKjZFu2qwFtEv-20" value="Name" style="rounded=0;whiteSpace=wrap;html=1;labelBackgroundColor=none;" vertex="1" parent="1">
          <mxGeometry x="100" y="280" width="50" height="40" as="geometry" />
        </mxCell>
        <mxCell id="oaFlQshyKjZFu2qwFtEv-21" value="Estd_Time" style="rounded=0;whiteSpace=wrap;html=1;labelBackgroundColor=none;" vertex="1" parent="1">
          <mxGeometry x="150" y="280" width="70" height="40" as="geometry" />
        </mxCell>
        <mxCell id="oaFlQshyKjZFu2qwFtEv-22" value="Estd_Labor_Cost" style="rounded=0;whiteSpace=wrap;html=1;labelBackgroundColor=none;" vertex="1" parent="1">
          <mxGeometry x="220" y="280" width="110" height="40" as="geometry" />
        </mxCell>
        <mxCell id="oaFlQshyKjZFu2qwFtEv-23" value="&lt;b&gt;Part&lt;/b&gt;" style="text;html=1;align=center;verticalAlign=middle;whiteSpace=wrap;rounded=0;" vertex="1" parent="1">
          <mxGeometry x="40" y="330" width="60" height="30" as="geometry" />
        </mxCell>
        <mxCell id="oaFlQshyKjZFu2qwFtEv-24" value="&lt;u&gt;Part_ID&lt;/u&gt;" style="rounded=0;whiteSpace=wrap;html=1;labelBackgroundColor=none;" vertex="1" parent="1">
          <mxGeometry x="40" y="360" width="60" height="40" as="geometry" />
        </mxCell>
        <mxCell id="oaFlQshyKjZFu2qwFtEv-25" value="Cost_Of_Part" style="rounded=0;whiteSpace=wrap;html=1;labelBackgroundColor=none;" vertex="1" parent="1">
          <mxGeometry x="100" y="360" width="90" height="40" as="geometry" />
        </mxCell>
        <mxCell id="oaFlQshyKjZFu2qwFtEv-26" value="Name" style="rounded=0;whiteSpace=wrap;html=1;labelBackgroundColor=none;" vertex="1" parent="1">
          <mxGeometry x="190" y="360" width="50" height="40" as="geometry" />
        </mxCell>
        <mxCell id="oaFlQshyKjZFu2qwFtEv-27" value="&lt;b&gt;Vehicle_Type&lt;/b&gt;" style="text;html=1;align=center;verticalAlign=middle;whiteSpace=wrap;rounded=0;" vertex="1" parent="1">
          <mxGeometry x="40" y="410" width="80" height="30" as="geometry" />
        </mxCell>
        <mxCell id="oaFlQshyKjZFu2qwFtEv-28" value="Vehicle_ID" style="rounded=0;whiteSpace=wrap;html=1;labelBackgroundColor=none;fontStyle=4" vertex="1" parent="1">
          <mxGeometry x="40" y="440" width="70" height="40" as="geometry" />
        </mxCell>
        <mxCell id="oaFlQshyKjZFu2qwFtEv-29" value="Make" style="rounded=0;whiteSpace=wrap;html=1;labelBackgroundColor=none;" vertex="1" parent="1">
          <mxGeometry x="110" y="440" width="60" height="40" as="geometry" />
        </mxCell>
        <mxCell id="oaFlQshyKjZFu2qwFtEv-30" value="Model" style="rounded=0;whiteSpace=wrap;html=1;labelBackgroundColor=none;" vertex="1" parent="1">
          <mxGeometry x="170" y="440" width="60" height="40" as="geometry" />
        </mxCell>
        <mxCell id="oaFlQshyKjZFu2qwFtEv-31" value="Year" style="rounded=0;whiteSpace=wrap;html=1;labelBackgroundColor=none;" vertex="1" parent="1">
          <mxGeometry x="230" y="440" width="60" height="40" as="geometry" />
        </mxCell>
        <mxCell id="oaFlQshyKjZFu2qwFtEv-32" value="Tire_Type" style="rounded=0;whiteSpace=wrap;html=1;labelBackgroundColor=none;" vertex="1" parent="1">
          <mxGeometry x="290" y="440" width="70" height="40" as="geometry" />
        </mxCell>
        <mxCell id="oaFlQshyKjZFu2qwFtEv-33" value="Engine_Type" style="rounded=0;whiteSpace=wrap;html=1;labelBackgroundColor=none;" vertex="1" parent="1">
          <mxGeometry x="360" y="440" width="80" height="40" as="geometry" />
        </mxCell>
        <mxCell id="oaFlQshyKjZFu2qwFtEv-76" style="edgeStyle=orthogonalEdgeStyle;rounded=0;orthogonalLoop=1;jettySize=auto;html=1;entryX=0;entryY=0.5;entryDx=0;entryDy=0;" edge="1" parent="1" source="oaFlQshyKjZFu2qwFtEv-34" target="oaFlQshyKjZFu2qwFtEv-44">
          <mxGeometry relative="1" as="geometry">
            <Array as="points">
              <mxPoint x="20" y="505" />
              <mxPoint x="20" y="665" />
            </Array>
          </mxGeometry>
        </mxCell>
        <mxCell id="oaFlQshyKjZFu2qwFtEv-77" style="edgeStyle=orthogonalEdgeStyle;rounded=0;orthogonalLoop=1;jettySize=auto;html=1;entryX=0;entryY=0.5;entryDx=0;entryDy=0;" edge="1" parent="1" source="oaFlQshyKjZFu2qwFtEv-34" target="oaFlQshyKjZFu2qwFtEv-45">
          <mxGeometry relative="1" as="geometry">
            <Array as="points">
              <mxPoint x="10" y="505" />
              <mxPoint x="10" y="745" />
            </Array>
          </mxGeometry>
        </mxCell>
        <mxCell id="oaFlQshyKjZFu2qwFtEv-34" value="&lt;b&gt;Car&lt;/b&gt;" style="text;html=1;align=center;verticalAlign=middle;whiteSpace=wrap;rounded=0;" vertex="1" parent="1">
          <mxGeometry x="40" y="490" width="40" height="30" as="geometry" />
        </mxCell>
        <mxCell id="oaFlQshyKjZFu2qwFtEv-35" value="&lt;u&gt;Car_ID&lt;/u&gt;" style="rounded=0;whiteSpace=wrap;html=1;labelBackgroundColor=none;" vertex="1" parent="1">
          <mxGeometry x="40" y="520" width="70" height="40" as="geometry" />
        </mxCell>
        <mxCell id="oaFlQshyKjZFu2qwFtEv-36" value="Interior" style="rounded=0;whiteSpace=wrap;html=1;labelBackgroundColor=none;" vertex="1" parent="1">
          <mxGeometry x="110" y="520" width="70" height="40" as="geometry" />
        </mxCell>
        <mxCell id="oaFlQshyKjZFu2qwFtEv-37" value="Odometer" style="rounded=0;whiteSpace=wrap;html=1;labelBackgroundColor=none;" vertex="1" parent="1">
          <mxGeometry x="180" y="520" width="70" height="40" as="geometry" />
        </mxCell>
        <mxCell id="oaFlQshyKjZFu2qwFtEv-38" value="Color" style="rounded=0;whiteSpace=wrap;html=1;labelBackgroundColor=none;" vertex="1" parent="1">
          <mxGeometry x="250" y="520" width="50" height="40" as="geometry" />
        </mxCell>
        <mxCell id="oaFlQshyKjZFu2qwFtEv-39" value="&lt;b&gt;Time_Slot&lt;/b&gt;" style="text;html=1;align=center;verticalAlign=middle;whiteSpace=wrap;rounded=0;" vertex="1" parent="1">
          <mxGeometry x="40" y="570" width="60" height="30" as="geometry" />
        </mxCell>
        <mxCell id="oaFlQshyKjZFu2qwFtEv-40" value="Time_Slot_ID" style="rounded=0;whiteSpace=wrap;html=1;labelBackgroundColor=none;fontStyle=4" vertex="1" parent="1">
          <mxGeometry x="40" y="600" width="80" height="40" as="geometry" />
        </mxCell>
        <mxCell id="oaFlQshyKjZFu2qwFtEv-41" value="Date" style="rounded=0;whiteSpace=wrap;html=1;labelBackgroundColor=none;" vertex="1" parent="1">
          <mxGeometry x="120" y="600" width="60" height="40" as="geometry" />
        </mxCell>
        <mxCell id="oaFlQshyKjZFu2qwFtEv-42" value="Start_Time" style="rounded=0;whiteSpace=wrap;html=1;labelBackgroundColor=none;" vertex="1" parent="1">
          <mxGeometry x="180" y="600" width="70" height="40" as="geometry" />
        </mxCell>
        <mxCell id="oaFlQshyKjZFu2qwFtEv-43" value="End_Time" style="rounded=0;whiteSpace=wrap;html=1;labelBackgroundColor=none;" vertex="1" parent="1">
          <mxGeometry x="250" y="600" width="70" height="40" as="geometry" />
        </mxCell>
        <mxCell id="oaFlQshyKjZFu2qwFtEv-44" value="&lt;b&gt;Customer_Cars&lt;/b&gt;" style="text;html=1;align=center;verticalAlign=middle;whiteSpace=wrap;rounded=0;" vertex="1" parent="1">
          <mxGeometry x="40" y="650" width="100" height="30" as="geometry" />
        </mxCell>
        <mxCell id="oaFlQshyKjZFu2qwFtEv-45" value="&lt;b&gt;Cars_In_Inventory&lt;/b&gt;" style="text;html=1;align=center;verticalAlign=middle;whiteSpace=wrap;rounded=0;" vertex="1" parent="1">
          <mxGeometry x="40" y="730" width="110" height="30" as="geometry" />
        </mxCell>
        <mxCell id="oaFlQshyKjZFu2qwFtEv-46" value="License_Plate_State" style="rounded=0;whiteSpace=wrap;html=1;labelBackgroundColor=none;" vertex="1" parent="1">
          <mxGeometry x="110" y="680" width="130" height="40" as="geometry" />
        </mxCell>
        <mxCell id="oaFlQshyKjZFu2qwFtEv-48" value="License_Plate" style="rounded=0;whiteSpace=wrap;html=1;labelBackgroundColor=none;" vertex="1" parent="1">
          <mxGeometry x="240" y="680" width="100" height="40" as="geometry" />
        </mxCell>
        <mxCell id="oaFlQshyKjZFu2qwFtEv-49" value="&lt;b&gt;Test&lt;/b&gt;" style="text;html=1;align=center;verticalAlign=middle;whiteSpace=wrap;rounded=0;" vertex="1" parent="1">
          <mxGeometry x="40" y="810" width="40" height="30" as="geometry" />
        </mxCell>
        <mxCell id="oaFlQshyKjZFu2qwFtEv-50" value="&lt;b&gt;Part_Replacement&lt;/b&gt;" style="text;html=1;align=center;verticalAlign=middle;whiteSpace=wrap;rounded=0;" vertex="1" parent="1">
          <mxGeometry x="40" y="890" width="120" height="30" as="geometry" />
        </mxCell>
        <mxCell id="oaFlQshyKjZFu2qwFtEv-51" value="&lt;b&gt;Purchase&lt;/b&gt;" style="text;html=1;align=center;verticalAlign=middle;whiteSpace=wrap;rounded=0;" vertex="1" parent="1">
          <mxGeometry x="40" y="970" width="70" height="30" as="geometry" />
        </mxCell>
        <mxCell id="oaFlQshyKjZFu2qwFtEv-92" style="edgeStyle=orthogonalEdgeStyle;rounded=0;orthogonalLoop=1;jettySize=auto;html=1;entryX=0;entryY=0.5;entryDx=0;entryDy=0;" edge="1" parent="1" source="oaFlQshyKjZFu2qwFtEv-52" target="oaFlQshyKjZFu2qwFtEv-88">
          <mxGeometry relative="1" as="geometry">
            <Array as="points">
              <mxPoint x="30" y="1020" />
              <mxPoint x="30" y="1100" />
            </Array>
          </mxGeometry>
        </mxCell>
        <mxCell id="oaFlQshyKjZFu2qwFtEv-52" value="Purchase_ID" style="rounded=0;whiteSpace=wrap;html=1;labelBackgroundColor=none;fontStyle=4" vertex="1" parent="1">
          <mxGeometry x="40" y="1000" width="80" height="40" as="geometry" />
        </mxCell>
        <mxCell id="oaFlQshyKjZFu2qwFtEv-53" value="Date_Of_Purchase" style="rounded=0;whiteSpace=wrap;html=1;labelBackgroundColor=none;" vertex="1" parent="1">
          <mxGeometry x="120" y="1000" width="120" height="40" as="geometry" />
        </mxCell>
        <mxCell id="oaFlQshyKjZFu2qwFtEv-57" style="edgeStyle=orthogonalEdgeStyle;rounded=0;orthogonalLoop=1;jettySize=auto;html=1;entryX=0.5;entryY=1;entryDx=0;entryDy=0;" edge="1" parent="1" source="oaFlQshyKjZFu2qwFtEv-56" target="oaFlQshyKjZFu2qwFtEv-1">
          <mxGeometry relative="1" as="geometry">
            <Array as="points">
              <mxPoint x="470" y="90" />
              <mxPoint x="80" y="90" />
            </Array>
          </mxGeometry>
        </mxCell>
        <mxCell id="oaFlQshyKjZFu2qwFtEv-56" value="Customer_ID" style="rounded=0;whiteSpace=wrap;html=1;labelBackgroundColor=none;" vertex="1" parent="1">
          <mxGeometry x="420" y="120" width="100" height="40" as="geometry" />
        </mxCell>
        <mxCell id="oaFlQshyKjZFu2qwFtEv-60" style="edgeStyle=orthogonalEdgeStyle;rounded=0;orthogonalLoop=1;jettySize=auto;html=1;entryX=0.5;entryY=1;entryDx=0;entryDy=0;" edge="1" parent="1" source="oaFlQshyKjZFu2qwFtEv-58" target="oaFlQshyKjZFu2qwFtEv-35">
          <mxGeometry relative="1" as="geometry">
            <Array as="points">
              <mxPoint x="470" y="1020" />
              <mxPoint x="470" y="570" />
              <mxPoint x="75" y="570" />
            </Array>
          </mxGeometry>
        </mxCell>
        <mxCell id="oaFlQshyKjZFu2qwFtEv-58" value="&lt;u&gt;Car_ID&lt;/u&gt;" style="rounded=0;whiteSpace=wrap;html=1;labelBackgroundColor=none;" vertex="1" parent="1">
          <mxGeometry x="240" y="1000" width="110" height="40" as="geometry" />
        </mxCell>
        <mxCell id="oaFlQshyKjZFu2qwFtEv-59" value="Customer_Cars_ID" style="rounded=0;whiteSpace=wrap;html=1;labelBackgroundColor=none;" vertex="1" parent="1">
          <mxGeometry x="340" y="680" width="110" height="40" as="geometry" />
        </mxCell>
        <mxCell id="oaFlQshyKjZFu2qwFtEv-62" style="edgeStyle=orthogonalEdgeStyle;rounded=0;orthogonalLoop=1;jettySize=auto;html=1;entryX=1;entryY=0.5;entryDx=0;entryDy=0;" edge="1" parent="1" source="oaFlQshyKjZFu2qwFtEv-61" target="oaFlQshyKjZFu2qwFtEv-59">
          <mxGeometry relative="1" as="geometry">
            <Array as="points">
              <mxPoint x="580" y="700" />
            </Array>
          </mxGeometry>
        </mxCell>
        <mxCell id="oaFlQshyKjZFu2qwFtEv-61" value="Customer_Cars_ID" style="rounded=0;whiteSpace=wrap;html=1;labelBackgroundColor=none;" vertex="1" parent="1">
          <mxGeometry x="520" y="120" width="120" height="40" as="geometry" />
        </mxCell>
        <mxCell id="oaFlQshyKjZFu2qwFtEv-64" style="edgeStyle=orthogonalEdgeStyle;rounded=0;orthogonalLoop=1;jettySize=auto;html=1;entryX=0.5;entryY=1;entryDx=0;entryDy=0;exitX=0.25;exitY=1;exitDx=0;exitDy=0;" edge="1" parent="1" source="oaFlQshyKjZFu2qwFtEv-63" target="oaFlQshyKjZFu2qwFtEv-15">
          <mxGeometry relative="1" as="geometry">
            <Array as="points">
              <mxPoint x="670" y="250" />
              <mxPoint x="85" y="250" />
            </Array>
          </mxGeometry>
        </mxCell>
        <mxCell id="oaFlQshyKjZFu2qwFtEv-63" value="Package_ID" style="rounded=0;whiteSpace=wrap;html=1;labelBackgroundColor=none;" vertex="1" parent="1">
          <mxGeometry x="640" y="120" width="120" height="40" as="geometry" />
        </mxCell>
        <mxCell id="oaFlQshyKjZFu2qwFtEv-70" style="edgeStyle=orthogonalEdgeStyle;rounded=0;orthogonalLoop=1;jettySize=auto;html=1;entryX=1;entryY=0.5;entryDx=0;entryDy=0;" edge="1" parent="1" source="oaFlQshyKjZFu2qwFtEv-67" target="oaFlQshyKjZFu2qwFtEv-50">
          <mxGeometry relative="1" as="geometry">
            <mxPoint x="170" y="940" as="targetPoint" />
            <Array as="points">
              <mxPoint x="460" y="380" />
              <mxPoint x="460" y="905" />
            </Array>
          </mxGeometry>
        </mxCell>
        <mxCell id="oaFlQshyKjZFu2qwFtEv-67" value="Part_Replacement" style="rounded=0;whiteSpace=wrap;html=1;labelBackgroundColor=none;" vertex="1" parent="1">
          <mxGeometry x="240" y="360" width="110" height="40" as="geometry" />
        </mxCell>
        <mxCell id="oaFlQshyKjZFu2qwFtEv-72" style="edgeStyle=orthogonalEdgeStyle;rounded=0;orthogonalLoop=1;jettySize=auto;html=1;entryX=0.5;entryY=1;entryDx=0;entryDy=0;" edge="1" parent="1" source="oaFlQshyKjZFu2qwFtEv-71" target="oaFlQshyKjZFu2qwFtEv-28">
          <mxGeometry relative="1" as="geometry">
            <Array as="points">
              <mxPoint x="335" y="490" />
              <mxPoint x="75" y="490" />
            </Array>
          </mxGeometry>
        </mxCell>
        <mxCell id="oaFlQshyKjZFu2qwFtEv-71" value="Vehicle_ID" style="rounded=0;whiteSpace=wrap;html=1;labelBackgroundColor=none;" vertex="1" parent="1">
          <mxGeometry x="300" y="520" width="70" height="40" as="geometry" />
        </mxCell>
        <mxCell id="oaFlQshyKjZFu2qwFtEv-74" value="Time_Slot_ID" style="rounded=0;whiteSpace=wrap;html=1;labelBackgroundColor=none;" vertex="1" parent="1">
          <mxGeometry x="760" y="120" width="120" height="40" as="geometry" />
        </mxCell>
        <mxCell id="oaFlQshyKjZFu2qwFtEv-75" style="edgeStyle=orthogonalEdgeStyle;rounded=0;orthogonalLoop=1;jettySize=auto;html=1;entryX=0.554;entryY=0.983;entryDx=0;entryDy=0;entryPerimeter=0;" edge="1" parent="1" source="oaFlQshyKjZFu2qwFtEv-74" target="oaFlQshyKjZFu2qwFtEv-40">
          <mxGeometry relative="1" as="geometry">
            <Array as="points">
              <mxPoint x="820" y="650" />
              <mxPoint x="84" y="650" />
            </Array>
          </mxGeometry>
        </mxCell>
        <mxCell id="oaFlQshyKjZFu2qwFtEv-81" value="&lt;u&gt;Car_ID&lt;/u&gt;" style="rounded=0;whiteSpace=wrap;html=1;labelBackgroundColor=none;" vertex="1" parent="1">
          <mxGeometry x="40" y="760" width="70" height="40" as="geometry" />
        </mxCell>
        <mxCell id="oaFlQshyKjZFu2qwFtEv-84" value="&lt;u&gt;Car_ID&lt;/u&gt;" style="rounded=0;whiteSpace=wrap;html=1;labelBackgroundColor=none;" vertex="1" parent="1">
          <mxGeometry x="40" y="680" width="70" height="40" as="geometry" />
        </mxCell>
        <mxCell id="oaFlQshyKjZFu2qwFtEv-85" value="&lt;u&gt;Task_ID&lt;/u&gt;" style="rounded=0;whiteSpace=wrap;html=1;labelBackgroundColor=none;" vertex="1" parent="1">
          <mxGeometry x="40" y="840" width="60" height="40" as="geometry" />
        </mxCell>
        <mxCell id="oaFlQshyKjZFu2qwFtEv-86" value="&lt;u&gt;Task_ID&lt;/u&gt;" style="rounded=0;whiteSpace=wrap;html=1;labelBackgroundColor=none;" vertex="1" parent="1">
          <mxGeometry x="40" y="920" width="60" height="40" as="geometry" />
        </mxCell>
        <mxCell id="oaFlQshyKjZFu2qwFtEv-87" value="&lt;b&gt;Was Bought&lt;/b&gt;" style="text;html=1;align=center;verticalAlign=middle;whiteSpace=wrap;rounded=0;" vertex="1" parent="1">
          <mxGeometry x="40" y="1050" width="80" height="30" as="geometry" />
        </mxCell>
        <mxCell id="oaFlQshyKjZFu2qwFtEv-88" value="&lt;u&gt;Purchase_ID&lt;/u&gt;" style="rounded=0;whiteSpace=wrap;html=1;labelBackgroundColor=none;" vertex="1" parent="1">
          <mxGeometry x="40" y="1080" width="80" height="40" as="geometry" />
        </mxCell>
        <mxCell id="oaFlQshyKjZFu2qwFtEv-89" value="Sale Price" style="rounded=0;whiteSpace=wrap;html=1;labelBackgroundColor=none;" vertex="1" parent="1">
          <mxGeometry x="120" y="1080" width="80" height="40" as="geometry" />
        </mxCell>
        <mxCell id="oaFlQshyKjZFu2qwFtEv-91" style="edgeStyle=orthogonalEdgeStyle;rounded=0;orthogonalLoop=1;jettySize=auto;html=1;entryX=0;entryY=0.5;entryDx=0;entryDy=0;" edge="1" parent="1" source="oaFlQshyKjZFu2qwFtEv-90" target="oaFlQshyKjZFu2qwFtEv-84">
          <mxGeometry relative="1" as="geometry">
            <Array as="points">
              <mxPoint x="240" y="1130" />
              <mxPoint x="20" y="1130" />
              <mxPoint x="20" y="700" />
            </Array>
          </mxGeometry>
        </mxCell>
        <mxCell id="oaFlQshyKjZFu2qwFtEv-90" value="Car_ID" style="rounded=0;whiteSpace=wrap;html=1;labelBackgroundColor=none;" vertex="1" parent="1">
          <mxGeometry x="200" y="1080" width="80" height="40" as="geometry" />
        </mxCell>
      </root>
    </mxGraphModel>
  </diagram>
</mxfile>
